<mxfile host="app.diagrams.net" modified="2021-12-29T07:54:46.636Z" agent="5.0 (Windows NT 10.0; Win64; x64) AppleWebKit/537.36 (KHTML, like Gecko) Chrome/96.0.4664.110 Safari/537.36" etag="qr0U9stJgDOCNFOOrmAO" version="16.0.3" type="github">
  <diagram id="p_hp3UYVbjeZgwzfY4cO" name="Page-1">
    <mxGraphModel dx="1752" dy="1670" grid="1" gridSize="10" guides="1" tooltips="1" connect="1" arrows="1" fold="1" page="1" pageScale="1" pageWidth="827" pageHeight="1169" math="0" shadow="0">
      <root>
        <mxCell id="0" />
        <mxCell id="1" parent="0" />
        <mxCell id="JjmnalyWe9DNaIFk7ZTX-5" style="edgeStyle=orthogonalEdgeStyle;rounded=0;orthogonalLoop=1;jettySize=auto;html=1;" parent="1" source="JjmnalyWe9DNaIFk7ZTX-1" target="JjmnalyWe9DNaIFk7ZTX-4" edge="1">
          <mxGeometry relative="1" as="geometry" />
        </mxCell>
        <mxCell id="JjmnalyWe9DNaIFk7ZTX-1" value="lidar-scan" style="rounded=1;whiteSpace=wrap;html=1;" parent="1" vertex="1">
          <mxGeometry x="-50" y="80" width="120" height="60" as="geometry" />
        </mxCell>
        <mxCell id="JjmnalyWe9DNaIFk7ZTX-8" style="edgeStyle=orthogonalEdgeStyle;rounded=0;orthogonalLoop=1;jettySize=auto;html=1;" parent="1" source="JjmnalyWe9DNaIFk7ZTX-2" target="JjmnalyWe9DNaIFk7ZTX-3" edge="1">
          <mxGeometry relative="1" as="geometry" />
        </mxCell>
        <mxCell id="JjmnalyWe9DNaIFk7ZTX-9" style="edgeStyle=orthogonalEdgeStyle;rounded=0;orthogonalLoop=1;jettySize=auto;html=1;entryX=0;entryY=0.5;entryDx=0;entryDy=0;" parent="1" source="JjmnalyWe9DNaIFk7ZTX-2" target="JjmnalyWe9DNaIFk7ZTX-7" edge="1">
          <mxGeometry relative="1" as="geometry" />
        </mxCell>
        <mxCell id="JjmnalyWe9DNaIFk7ZTX-2" value="data" style="rounded=1;whiteSpace=wrap;html=1;" parent="1" vertex="1">
          <mxGeometry x="230" y="80" width="120" height="60" as="geometry" />
        </mxCell>
        <mxCell id="JjmnalyWe9DNaIFk7ZTX-3" value="mod.rs" style="rounded=1;whiteSpace=wrap;html=1;" parent="1" vertex="1">
          <mxGeometry x="410" y="80" width="120" height="60" as="geometry" />
        </mxCell>
        <mxCell id="JjmnalyWe9DNaIFk7ZTX-6" style="edgeStyle=orthogonalEdgeStyle;rounded=0;orthogonalLoop=1;jettySize=auto;html=1;" parent="1" source="JjmnalyWe9DNaIFk7ZTX-4" target="JjmnalyWe9DNaIFk7ZTX-2" edge="1">
          <mxGeometry relative="1" as="geometry" />
        </mxCell>
        <mxCell id="JjmnalyWe9DNaIFk7ZTX-4" value="src" style="rounded=1;whiteSpace=wrap;html=1;" parent="1" vertex="1">
          <mxGeometry x="90" y="80" width="120" height="60" as="geometry" />
        </mxCell>
        <mxCell id="JjmnalyWe9DNaIFk7ZTX-7" value="velodyne.rs&lt;br&gt;" style="rounded=1;whiteSpace=wrap;html=1;" parent="1" vertex="1">
          <mxGeometry x="410" y="150" width="120" height="60" as="geometry" />
        </mxCell>
        <mxCell id="JjmnalyWe9DNaIFk7ZTX-10" value="velodyne.rs&lt;br&gt;" style="rounded=1;whiteSpace=wrap;html=1;fillColor=#ffe6cc;strokeColor=#d79b00;" parent="1" vertex="1">
          <mxGeometry x="-50" y="510" width="120" height="60" as="geometry" />
        </mxCell>
        <mxCell id="JjmnalyWe9DNaIFk7ZTX-11" value="velodyne receiver" style="rounded=1;whiteSpace=wrap;html=1;" parent="1" vertex="1">
          <mxGeometry x="-50" y="600" width="120" height="39" as="geometry" />
        </mxCell>
        <mxCell id="JjmnalyWe9DNaIFk7ZTX-12" value="rust-bin" style="rounded=1;whiteSpace=wrap;html=1;fillColor=#ffe6cc;strokeColor=#d79b00;" parent="1" vertex="1">
          <mxGeometry x="-50" width="120" height="60" as="geometry" />
        </mxCell>
        <mxCell id="JjmnalyWe9DNaIFk7ZTX-13" value="rust-bin" style="rounded=1;whiteSpace=wrap;html=1;fillColor=#ffe6cc;strokeColor=#d79b00;" parent="1" vertex="1">
          <mxGeometry x="-50" y="270" width="120" height="60" as="geometry" />
        </mxCell>
        <mxCell id="JjmnalyWe9DNaIFk7ZTX-14" value="pcd-tool" style="rounded=1;whiteSpace=wrap;html=1;" parent="1" vertex="1">
          <mxGeometry x="-50" y="340" width="120" height="60" as="geometry" />
        </mxCell>
        <mxCell id="JjmnalyWe9DNaIFk7ZTX-15" value="rust-bin" style="rounded=1;whiteSpace=wrap;html=1;fillColor=#ffe6cc;strokeColor=#d79b00;" parent="1" vertex="1">
          <mxGeometry x="-190" y="-70" width="120" height="60" as="geometry" />
        </mxCell>
        <mxCell id="zY3CWhBnF8Us8pA8xQJU-1" value="main" style="rounded=1;whiteSpace=wrap;html=1;" vertex="1" parent="1">
          <mxGeometry x="-50" y="180" width="120" height="60" as="geometry" />
        </mxCell>
        <mxCell id="zY3CWhBnF8Us8pA8xQJU-2" value="main" style="rounded=1;whiteSpace=wrap;html=1;fillColor=#ffe6cc;strokeColor=#d79b00;" vertex="1" parent="1">
          <mxGeometry x="-70" y="730" width="120" height="60" as="geometry" />
        </mxCell>
        <mxCell id="zY3CWhBnF8Us8pA8xQJU-8" style="edgeStyle=orthogonalEdgeStyle;rounded=0;orthogonalLoop=1;jettySize=auto;html=1;entryX=0;entryY=0.5;entryDx=0;entryDy=0;" edge="1" parent="1" source="zY3CWhBnF8Us8pA8xQJU-3" target="zY3CWhBnF8Us8pA8xQJU-4">
          <mxGeometry relative="1" as="geometry" />
        </mxCell>
        <mxCell id="zY3CWhBnF8Us8pA8xQJU-3" value="data::build_data_workers" style="rounded=1;whiteSpace=wrap;html=1;" vertex="1" parent="1">
          <mxGeometry x="-70" y="830" width="181.54" height="59" as="geometry" />
        </mxCell>
        <mxCell id="zY3CWhBnF8Us8pA8xQJU-16" style="edgeStyle=orthogonalEdgeStyle;rounded=0;orthogonalLoop=1;jettySize=auto;html=1;" edge="1" parent="1" source="zY3CWhBnF8Us8pA8xQJU-4" target="zY3CWhBnF8Us8pA8xQJU-14">
          <mxGeometry relative="1" as="geometry" />
        </mxCell>
        <mxCell id="zY3CWhBnF8Us8pA8xQJU-4" value="build_data_workers" style="rounded=1;whiteSpace=wrap;html=1;" vertex="1" parent="1">
          <mxGeometry x="210" y="830" width="180" height="59" as="geometry" />
        </mxCell>
        <mxCell id="zY3CWhBnF8Us8pA8xQJU-5" value="mod.rs" style="rounded=1;whiteSpace=wrap;html=1;fillColor=#ffe6cc;strokeColor=#d79b00;" vertex="1" parent="1">
          <mxGeometry x="210" y="730" width="120" height="60" as="geometry" />
        </mxCell>
        <mxCell id="zY3CWhBnF8Us8pA8xQJU-6" value="velodyne.rs" style="rounded=1;whiteSpace=wrap;html=1;fillColor=#ffe6cc;strokeColor=#d79b00;" vertex="1" parent="1">
          <mxGeometry x="770" y="710" width="120" height="60" as="geometry" />
        </mxCell>
        <mxCell id="zY3CWhBnF8Us8pA8xQJU-13" style="edgeStyle=orthogonalEdgeStyle;rounded=0;orthogonalLoop=1;jettySize=auto;html=1;" edge="1" parent="1" source="zY3CWhBnF8Us8pA8xQJU-7" target="zY3CWhBnF8Us8pA8xQJU-4">
          <mxGeometry relative="1" as="geometry" />
        </mxCell>
        <mxCell id="zY3CWhBnF8Us8pA8xQJU-7" value="build_device_streams" style="rounded=1;whiteSpace=wrap;html=1;" vertex="1" parent="1">
          <mxGeometry x="210" y="960" width="181.54" height="59" as="geometry" />
        </mxCell>
        <mxCell id="zY3CWhBnF8Us8pA8xQJU-12" style="edgeStyle=orthogonalEdgeStyle;rounded=0;orthogonalLoop=1;jettySize=auto;html=1;entryX=1;entryY=0.5;entryDx=0;entryDy=0;" edge="1" parent="1" source="zY3CWhBnF8Us8pA8xQJU-10" target="zY3CWhBnF8Us8pA8xQJU-7">
          <mxGeometry relative="1" as="geometry" />
        </mxCell>
        <mxCell id="zY3CWhBnF8Us8pA8xQJU-10" value="velodyne_receiver" style="rounded=1;whiteSpace=wrap;html=1;" vertex="1" parent="1">
          <mxGeometry x="770" y="960" width="181.54" height="59" as="geometry" />
        </mxCell>
        <mxCell id="zY3CWhBnF8Us8pA8xQJU-14" value="data_source_receiver" style="rounded=1;whiteSpace=wrap;html=1;" vertex="1" parent="1">
          <mxGeometry x="420" y="830" width="181.54" height="59" as="geometry" />
        </mxCell>
      </root>
    </mxGraphModel>
  </diagram>
</mxfile>
